<svg xmlns="http://www.w3.org/2000/svg" width="1200" height="700">
<rect width="100%" height="100%" fill="#ffffff"/>
<style>
  text { fill: #000; font-family: "Times New Roman", Times, Georgia, serif; }
  .axis { stroke: #000; stroke-width: 1.5; shape-rendering: crispEdges; }
  .grid { stroke: #cccccc; stroke-width: 1; shape-rendering: crispEdges; }
  .tick { stroke: #000; stroke-width: 1; }
</style>
<line class="axis" x1="90" y1="620" x2="1170" y2="620"/><line class="axis" x1="90" y1="20" x2="90" y2="620"/><line class="grid" x1="90.00" y1="620" x2="90.00" y2="20"/><line class="tick" x1="90.00" y1="620" x2="90.00" y2="626"/><text x="90.00" y="648" text-anchor="middle" font-size="14">1</text><line class="grid" x1="139.09" y1="620" x2="139.09" y2="20"/><line class="tick" x1="139.09" y1="620" x2="139.09" y2="626"/><text x="139.09" y="648" text-anchor="middle" font-size="14">2</text><line class="grid" x1="188.18" y1="620" x2="188.18" y2="20"/><line class="tick" x1="188.18" y1="620" x2="188.18" y2="626"/><text x="188.18" y="648" text-anchor="middle" font-size="14">4</text><line class="grid" x1="237.27" y1="620" x2="237.27" y2="20"/><line class="tick" x1="237.27" y1="620" x2="237.27" y2="626"/><text x="237.27" y="648" text-anchor="middle" font-size="14">8</text><line class="grid" x1="286.36" y1="620" x2="286.36" y2="20"/><line class="tick" x1="286.36" y1="620" x2="286.36" y2="626"/><text x="286.36" y="648" text-anchor="middle" font-size="14">16</text><line class="grid" x1="335.45" y1="620" x2="335.45" y2="20"/><line class="tick" x1="335.45" y1="620" x2="335.45" y2="626"/><text x="335.45" y="648" text-anchor="middle" font-size="14">32</text><line class="grid" x1="384.55" y1="620" x2="384.55" y2="20"/><line class="tick" x1="384.55" y1="620" x2="384.55" y2="626"/><text x="384.55" y="648" text-anchor="middle" font-size="14">64</text><line class="grid" x1="433.64" y1="620" x2="433.64" y2="20"/><line class="tick" x1="433.64" y1="620" x2="433.64" y2="626"/><text x="433.64" y="648" text-anchor="middle" font-size="14">128</text><line class="grid" x1="482.73" y1="620" x2="482.73" y2="20"/><line class="tick" x1="482.73" y1="620" x2="482.73" y2="626"/><text x="482.73" y="648" text-anchor="middle" font-size="14">256</text><line class="grid" x1="531.82" y1="620" x2="531.82" y2="20"/><line class="tick" x1="531.82" y1="620" x2="531.82" y2="626"/><text x="531.82" y="648" text-anchor="middle" font-size="14">512</text><line class="grid" x1="580.91" y1="620" x2="580.91" y2="20"/><line class="tick" x1="580.91" y1="620" x2="580.91" y2="626"/><text x="580.91" y="648" text-anchor="middle" font-size="14">1.02K</text><line class="grid" x1="630.00" y1="620" x2="630.00" y2="20"/><line class="tick" x1="630.00" y1="620" x2="630.00" y2="626"/><text x="630.00" y="648" text-anchor="middle" font-size="14">2.05K</text><line class="grid" x1="679.09" y1="620" x2="679.09" y2="20"/><line class="tick" x1="679.09" y1="620" x2="679.09" y2="626"/><text x="679.09" y="648" text-anchor="middle" font-size="14">4.10K</text><line class="grid" x1="728.18" y1="620" x2="728.18" y2="20"/><line class="tick" x1="728.18" y1="620" x2="728.18" y2="626"/><text x="728.18" y="648" text-anchor="middle" font-size="14">8.19K</text><line class="grid" x1="777.27" y1="620" x2="777.27" y2="20"/><line class="tick" x1="777.27" y1="620" x2="777.27" y2="626"/><text x="777.27" y="648" text-anchor="middle" font-size="14">16.38K</text><line class="grid" x1="826.36" y1="620" x2="826.36" y2="20"/><line class="tick" x1="826.36" y1="620" x2="826.36" y2="626"/><text x="826.36" y="648" text-anchor="middle" font-size="14">32.77K</text><line class="grid" x1="875.45" y1="620" x2="875.45" y2="20"/><line class="tick" x1="875.45" y1="620" x2="875.45" y2="626"/><text x="875.45" y="648" text-anchor="middle" font-size="14">65.54K</text><line class="grid" x1="924.55" y1="620" x2="924.55" y2="20"/><line class="tick" x1="924.55" y1="620" x2="924.55" y2="626"/><text x="924.55" y="648" text-anchor="middle" font-size="14">131.07K</text><line class="grid" x1="973.64" y1="620" x2="973.64" y2="20"/><line class="tick" x1="973.64" y1="620" x2="973.64" y2="626"/><text x="973.64" y="648" text-anchor="middle" font-size="14">262.14K</text><line class="grid" x1="1022.73" y1="620" x2="1022.73" y2="20"/><line class="tick" x1="1022.73" y1="620" x2="1022.73" y2="626"/><text x="1022.73" y="648" text-anchor="middle" font-size="14">524.29K</text><line class="grid" x1="1071.82" y1="620" x2="1071.82" y2="20"/><line class="tick" x1="1071.82" y1="620" x2="1071.82" y2="626"/><text x="1071.82" y="648" text-anchor="middle" font-size="14">1.05M</text><line class="grid" x1="1120.91" y1="620" x2="1120.91" y2="20"/><line class="tick" x1="1120.91" y1="620" x2="1120.91" y2="626"/><text x="1120.91" y="648" text-anchor="middle" font-size="14">2.10M</text><line class="grid" x1="1170.00" y1="620" x2="1170.00" y2="20"/><line class="tick" x1="1170.00" y1="620" x2="1170.00" y2="626"/><text x="1170.00" y="648" text-anchor="middle" font-size="14">4.19M</text><line class="grid" x1="90" y1="620.00" x2="1170" y2="620.00"/><line class="tick" x1="84" y1="620.00" x2="90" y2="620.00"/><text x="80" y="625.00" text-anchor="end" font-size="14">0</text><line class="grid" x1="90" y1="389.05" x2="1170" y2="389.05"/><line class="tick" x1="84" y1="389.05" x2="90" y2="389.05"/><text x="80" y="394.05" text-anchor="end" font-size="14">500</text><line class="grid" x1="90" y1="158.11" x2="1170" y2="158.11"/><line class="tick" x1="84" y1="158.11" x2="90" y2="158.11"/><text x="80" y="163.11" text-anchor="end" font-size="14">1000</text><line class="grid" x1="90" y1="-72.84" x2="1170" y2="-72.84"/><line class="tick" x1="84" y1="-72.84" x2="90" y2="-72.84"/><text x="80" y="-67.84" text-anchor="end" font-size="14">1500</text><rect x="90.00" y="618.61" width="48.09" height="1.39" fill="#2ca02c"/><rect x="188.18" y="619.54" width="48.09" height="0.46" fill="#2ca02c"/><rect x="237.27" y="575.66" width="48.09" height="44.34" fill="#2ca02c"/><rect x="286.36" y="601.06" width="48.09" height="18.94" fill="#2ca02c"/><rect x="335.45" y="547.02" width="48.09" height="72.98" fill="#2ca02c"/><rect x="384.55" y="510.07" width="48.09" height="109.93" fill="#2ca02c"/><rect x="433.64" y="426.00" width="48.09" height="194.00" fill="#2ca02c"/><rect x="482.73" y="364.57" width="48.09" height="255.43" fill="#2ca02c"/><rect x="531.82" y="20.00" width="48.09" height="600.00" fill="#2ca02c"/><rect x="580.91" y="108.68" width="48.09" height="511.32" fill="#2ca02c"/><rect x="630.00" y="171.04" width="48.09" height="448.96" fill="#2ca02c"/><rect x="679.09" y="180.74" width="48.09" height="439.26" fill="#2ca02c"/><rect x="728.18" y="143.33" width="48.09" height="476.67" fill="#2ca02c"/><rect x="777.27" y="92.52" width="48.09" height="527.48" fill="#2ca02c"/><rect x="826.36" y="94.36" width="48.09" height="525.64" fill="#2ca02c"/><rect x="875.45" y="195.52" width="48.09" height="424.48" fill="#2ca02c"/><rect x="924.55" y="329.47" width="48.09" height="290.53" fill="#2ca02c"/><rect x="973.64" y="457.41" width="48.09" height="162.59" fill="#2ca02c"/><rect x="1022.73" y="514.69" width="48.09" height="105.31" fill="#2ca02c"/><rect x="1071.82" y="564.11" width="48.09" height="55.89" fill="#2ca02c"/><rect x="1120.91" y="609.38" width="48.09" height="10.62" fill="#2ca02c"/><text x="630.00" y="680" text-anchor="middle" font-size="16">Faces per asset (log10 bins)</text><text transform="translate(20,320.00) rotate(-90)" text-anchor="middle" font-size="16">Count of assets</text></svg>
