<svg xmlns="http://www.w3.org/2000/svg" width="1200" height="900">
<rect width="100%" height="100%" fill="#ffffff"/>
<style>
  text { fill: #000; font-family: "Times New Roman", Times, Georgia, serif; }
  .axis { stroke: #000; stroke-width: 1.5; shape-rendering: crispEdges; }
  .grid { stroke: #cccccc; stroke-width: 1; shape-rendering: crispEdges; }
  .tick { stroke: #000; stroke-width: 1; }
</style>
<line class="axis" x1="420" y1="30" x2="420" y2="860"/><line class="axis" x1="420" y1="860" x2="1140" y2="860"/><line class="grid" x1="420.00" y1="30" x2="420.00" y2="860"/><line class="tick" x1="420.00" y1="860" x2="420.00" y2="866"/><text x="420.00" y="886" text-anchor="middle" font-size="14">0</text><line class="grid" x1="622.13" y1="30" x2="622.13" y2="860"/><line class="tick" x1="622.13" y1="860" x2="622.13" y2="866"/><text x="622.13" y="886" text-anchor="middle" font-size="14">1.00M</text><line class="grid" x1="824.25" y1="30" x2="824.25" y2="860"/><line class="tick" x1="824.25" y1="860" x2="824.25" y2="866"/><text x="824.25" y="886" text-anchor="middle" font-size="14">2.00M</text><line class="grid" x1="1026.38" y1="30" x2="1026.38" y2="860"/><line class="tick" x1="1026.38" y1="860" x2="1026.38" y2="866"/><text x="1026.38" y="886" text-anchor="middle" font-size="14">3.00M</text><line class="grid" x1="1228.51" y1="30" x2="1228.51" y2="860"/><line class="tick" x1="1228.51" y1="860" x2="1228.51" y2="866"/><text x="1228.51" y="886" text-anchor="middle" font-size="14">4.00M</text><text x="410" y="55.75" text-anchor="end" font-size="14">home-articulated-desk-c214c4ef47af0190632405cf6bbecd61/instance.usd</text><rect x="420.00" y="33.11" width="720.00" height="35.27" fill="#ff7f0e"/><text x="1146.00" y="55.75" text-anchor="start" font-size="12">3.56M</text><text x="410" y="97.25" text-anchor="end" font-size="14">home-articulated-desk-dc740e0ecd977814bd93ce2c0a2c0b7f/instance.usd</text><rect x="420.00" y="74.61" width="720.00" height="35.27" fill="#ff7f0e"/><text x="1146.00" y="97.25" text-anchor="start" font-size="12">3.56M</text><text x="410" y="138.75" text-anchor="end" font-size="14">commercial-others-shelf-d07a12f6baa690a7d1766b906dbbbc9d/instance.usd</text><rect x="420.00" y="116.11" width="678.89" height="35.27" fill="#ff7f0e"/><text x="1104.89" y="138.75" text-anchor="start" font-size="12">3.36M</text><text x="410" y="180.25" text-anchor="end" font-size="14">home-others-plant-a757830e4f523c4e00d51a290ea4d248/instance.usd</text><rect x="420.00" y="157.61" width="669.87" height="35.27" fill="#ff7f0e"/><text x="1095.87" y="180.25" text-anchor="start" font-size="12">3.31M</text><text x="410" y="221.75" text-anchor="end" font-size="14">home-articulated-dishwasher-1123cad3c5759a28cbf18e7b11817db1/instance.usd</text><rect x="420.00" y="199.11" width="653.22" height="35.27" fill="#ff7f0e"/><text x="1079.22" y="221.75" text-anchor="start" font-size="12">3.23M</text><text x="410" y="263.25" text-anchor="end" font-size="14">home-others-light-ebc21bc69172279aa9f5e9290f5fecbb/instance.usd</text><rect x="420.00" y="240.61" width="587.03" height="35.27" fill="#ff7f0e"/><text x="1013.03" y="263.25" text-anchor="start" font-size="12">2.90M</text><text x="410" y="304.75" text-anchor="end" font-size="14">home-others-bed-46078b032b5f00e665294e43999d653e/instance.usd</text><rect x="420.00" y="282.11" width="561.83" height="35.27" fill="#ff7f0e"/><text x="987.83" y="304.75" text-anchor="start" font-size="12">2.78M</text><text x="410" y="346.25" text-anchor="end" font-size="14">home-others-other-b876e0c2b08afc1cc2950674df2276dc/instance.usd</text><rect x="420.00" y="323.61" width="538.04" height="35.27" fill="#ff7f0e"/><text x="964.04" y="346.25" text-anchor="start" font-size="12">2.66M</text><text x="410" y="387.75" text-anchor="end" font-size="14">commercial-others-shelf-2b1bec1cd9ca8175c4f20679d614588a/instance.usd</text><rect x="420.00" y="365.11" width="525.50" height="35.27" fill="#ff7f0e"/><text x="951.50" y="387.75" text-anchor="start" font-size="12">2.60M</text><text x="410" y="429.25" text-anchor="end" font-size="14">commercial-others-shelf-501779aa5681461b611fab8218c2e54e/instance.usd</text><rect x="420.00" y="406.61" width="502.87" height="35.27" fill="#ff7f0e"/><text x="928.87" y="429.25" text-anchor="start" font-size="12">2.49M</text><text x="410" y="470.75" text-anchor="end" font-size="14">home-others-other-e545629a4c829a32b7f31d3fd1649d38/instance.usd</text><rect x="420.00" y="448.11" width="491.31" height="35.27" fill="#ff7f0e"/><text x="917.31" y="470.75" text-anchor="start" font-size="12">2.43M</text><text x="410" y="512.25" text-anchor="end" font-size="14">home-articulated-dishwasher-1228829ff330b6579b71ced9c3c70c01/instance.usd</text><rect x="420.00" y="489.61" width="470.67" height="35.27" fill="#ff7f0e"/><text x="896.67" y="512.25" text-anchor="start" font-size="12">2.33M</text><text x="410" y="553.75" text-anchor="end" font-size="14">home-articulated-refrigerator-308eb232cc546e40e156c2b3a2c734d6/instance.usd</text><rect x="420.00" y="531.11" width="470.26" height="35.27" fill="#ff7f0e"/><text x="896.26" y="553.75" text-anchor="start" font-size="12">2.33M</text><text x="410" y="595.25" text-anchor="end" font-size="14">home-others-light-186aa6e190c78ce4e27889f34175d3e8/instance.usd</text><rect x="420.00" y="572.61" width="469.39" height="35.27" fill="#ff7f0e"/><text x="895.39" y="595.25" text-anchor="start" font-size="12">2.32M</text><text x="410" y="636.75" text-anchor="end" font-size="14">commercial-others-shelf-7d03d911a66209483269e73188022566/instance.usd</text><rect x="420.00" y="614.11" width="468.63" height="35.27" fill="#ff7f0e"/><text x="894.63" y="636.75" text-anchor="start" font-size="12">2.32M</text><text x="410" y="678.25" text-anchor="end" font-size="14">home-articulated-refrigerator-25f044c31869cf459590a0880455eb46/instance.usd</text><rect x="420.00" y="655.61" width="461.14" height="35.27" fill="#ff7f0e"/><text x="887.14" y="678.25" text-anchor="start" font-size="12">2.28M</text><text x="410" y="719.75" text-anchor="end" font-size="14">home-others-bed-f82311822dbe7f111d6add2107b8abaa/instance.usd</text><rect x="420.00" y="697.11" width="455.58" height="35.27" fill="#ff7f0e"/><text x="881.58" y="719.75" text-anchor="start" font-size="12">2.25M</text><text x="410" y="761.25" text-anchor="end" font-size="14">home-articulated-dishwasher-c7a6bbac322e557d0698e48013d09f42/instance.usd</text><rect x="420.00" y="738.61" width="454.54" height="35.27" fill="#ff7f0e"/><text x="880.54" y="761.25" text-anchor="start" font-size="12">2.25M</text><text x="410" y="802.75" text-anchor="end" font-size="14">commercial-others-shelf-1f14e5314ce21f56d3743b6aa17cb83e/instance.usd</text><rect x="420.00" y="780.11" width="452.77" height="35.27" fill="#ff7f0e"/><text x="878.77" y="802.75" text-anchor="start" font-size="12">2.24M</text><text x="410" y="844.25" text-anchor="end" font-size="14">home-others-plant-bb585bd5a0e24e006402e8cda7886e4e/instance.usd</text><rect x="420.00" y="821.61" width="451.89" height="35.27" fill="#ff7f0e"/><text x="877.89" y="844.25" text-anchor="start" font-size="12">2.24M</text><text x="780.00" y="892" text-anchor="middle" font-size="16">Faces</text></svg>
