<svg xmlns="http://www.w3.org/2000/svg" width="1200" height="700">
<rect width="100%" height="100%" fill="#ffffff"/>
<style>
  text { fill: #000; font-family: "Times New Roman", Times, Georgia, serif; }
  .axis { stroke: #000; stroke-width: 1.5; shape-rendering: crispEdges; }
  .grid { stroke: #cccccc; stroke-width: 1; shape-rendering: crispEdges; }
  .tick { stroke: #000; stroke-width: 1; }
</style>
<line class="axis" x1="90" y1="620" x2="1170" y2="620"/><line class="axis" x1="90" y1="20" x2="90" y2="620"/><line class="grid" x1="90.00" y1="620" x2="90.00" y2="20"/><line class="tick" x1="90.00" y1="620" x2="90.00" y2="626"/><text x="90.00" y="648" text-anchor="middle" font-size="14">0</text><line class="grid" x1="393.19" y1="620" x2="393.19" y2="20"/><line class="tick" x1="393.19" y1="620" x2="393.19" y2="626"/><text x="393.19" y="648" text-anchor="middle" font-size="14">1.00M</text><line class="grid" x1="696.38" y1="620" x2="696.38" y2="20"/><line class="tick" x1="696.38" y1="620" x2="696.38" y2="626"/><text x="696.38" y="648" text-anchor="middle" font-size="14">2.00M</text><line class="grid" x1="999.57" y1="620" x2="999.57" y2="20"/><line class="tick" x1="999.57" y1="620" x2="999.57" y2="626"/><text x="999.57" y="648" text-anchor="middle" font-size="14">3.00M</text><line class="grid" x1="1302.76" y1="620" x2="1302.76" y2="20"/><line class="tick" x1="1302.76" y1="620" x2="1302.76" y2="626"/><text x="1302.76" y="648" text-anchor="middle" font-size="14">4.00M</text><line class="grid" x1="90" y1="620.00" x2="1170" y2="620.00"/><line class="tick" x1="84" y1="620.00" x2="90" y2="620.00"/><text x="80" y="625.00" text-anchor="end" font-size="14">0</text><line class="grid" x1="90" y1="489.99" x2="1170" y2="489.99"/><line class="tick" x1="84" y1="489.99" x2="90" y2="489.99"/><text x="80" y="494.99" text-anchor="end" font-size="14">2000</text><line class="grid" x1="90" y1="359.98" x2="1170" y2="359.98"/><line class="tick" x1="84" y1="359.98" x2="90" y2="359.98"/><text x="80" y="364.98" text-anchor="end" font-size="14">4000</text><line class="grid" x1="90" y1="229.97" x2="1170" y2="229.97"/><line class="tick" x1="84" y1="229.97" x2="90" y2="229.97"/><text x="80" y="234.97" text-anchor="end" font-size="14">6000</text><line class="grid" x1="90" y1="99.96" x2="1170" y2="99.96"/><line class="tick" x1="84" y1="99.96" x2="90" y2="99.96"/><text x="80" y="104.96" text-anchor="end" font-size="14">8000</text><line class="grid" x1="90" y1="-30.05" x2="1170" y2="-30.05"/><line class="tick" x1="84" y1="-30.05" x2="90" y2="-30.05"/><text x="80" y="-25.05" text-anchor="end" font-size="14">10000</text><rect x="90.00" y="20.00" width="20.60" height="600.00" fill="#1f77b4"/><rect x="111.60" y="558.70" width="20.60" height="61.30" fill="#1f77b4"/><rect x="133.20" y="594.91" width="20.60" height="25.09" fill="#1f77b4"/><rect x="154.80" y="608.62" width="20.60" height="11.38" fill="#1f77b4"/><rect x="176.40" y="612.78" width="20.60" height="7.22" fill="#1f77b4"/><rect x="198.00" y="613.04" width="20.60" height="6.96" fill="#1f77b4"/><rect x="219.60" y="614.80" width="20.60" height="5.20" fill="#1f77b4"/><rect x="241.20" y="617.01" width="20.60" height="2.99" fill="#1f77b4"/><rect x="262.80" y="616.75" width="20.60" height="3.25" fill="#1f77b4"/><rect x="284.40" y="617.33" width="20.60" height="2.67" fill="#1f77b4"/><rect x="306.00" y="617.98" width="20.60" height="2.02" fill="#1f77b4"/><rect x="327.60" y="618.37" width="20.60" height="1.63" fill="#1f77b4"/><rect x="349.20" y="618.70" width="20.60" height="1.30" fill="#1f77b4"/><rect x="370.80" y="618.37" width="20.60" height="1.63" fill="#1f77b4"/><rect x="392.40" y="618.83" width="20.60" height="1.17" fill="#1f77b4"/><rect x="414.00" y="618.50" width="20.60" height="1.50" fill="#1f77b4"/><rect x="435.60" y="618.96" width="20.60" height="1.04" fill="#1f77b4"/><rect x="457.20" y="618.89" width="20.60" height="1.11" fill="#1f77b4"/><rect x="478.80" y="619.35" width="20.60" height="0.65" fill="#1f77b4"/><rect x="500.40" y="619.48" width="20.60" height="0.52" fill="#1f77b4"/><rect x="522.00" y="619.80" width="20.60" height="0.20" fill="#1f77b4"/><rect x="543.60" y="619.54" width="20.60" height="0.46" fill="#1f77b4"/><rect x="565.20" y="619.48" width="20.60" height="0.52" fill="#1f77b4"/><rect x="586.80" y="619.80" width="20.60" height="0.20" fill="#1f77b4"/><rect x="608.40" y="619.74" width="20.60" height="0.26" fill="#1f77b4"/><rect x="630.00" y="619.87" width="20.60" height="0.13" fill="#1f77b4"/><rect x="651.60" y="619.74" width="20.60" height="0.26" fill="#1f77b4"/><rect x="673.20" y="619.80" width="20.60" height="0.20" fill="#1f77b4"/><rect x="694.80" y="619.80" width="20.60" height="0.20" fill="#1f77b4"/><rect x="716.40" y="619.87" width="20.60" height="0.13" fill="#1f77b4"/><rect x="738.00" y="619.87" width="20.60" height="0.13" fill="#1f77b4"/><rect x="759.60" y="619.74" width="20.60" height="0.26" fill="#1f77b4"/><rect x="781.20" y="619.67" width="20.60" height="0.33" fill="#1f77b4"/><rect x="824.40" y="619.87" width="20.60" height="0.13" fill="#1f77b4"/><rect x="867.60" y="619.93" width="20.60" height="0.07" fill="#1f77b4"/><rect x="889.20" y="619.93" width="20.60" height="0.07" fill="#1f77b4"/><rect x="932.40" y="619.93" width="20.60" height="0.07" fill="#1f77b4"/><rect x="954.00" y="619.93" width="20.60" height="0.07" fill="#1f77b4"/><rect x="1062.00" y="619.93" width="20.60" height="0.07" fill="#1f77b4"/><rect x="1083.60" y="619.93" width="20.60" height="0.07" fill="#1f77b4"/><rect x="1105.20" y="619.93" width="20.60" height="0.07" fill="#1f77b4"/><rect x="1148.40" y="619.87" width="20.60" height="0.13" fill="#1f77b4"/><line x1="92.26" y1="620" x2="92.26" y2="20" stroke="#d62728" stroke-width="1.5" stroke-dasharray="6,4"/><text x="98.26" y="38" text-anchor="start" font-size="12" fill="#d62728">Median: 7.45K</text><line x1="138.99" y1="620" x2="138.99" y2="20" stroke="#2ca02c" stroke-width="1.5" stroke-dasharray="6,4"/><text x="144.99" y="38" text-anchor="start" font-size="12" fill="#2ca02c">p90: 161.58K</text><line x1="428.70" y1="620" x2="428.70" y2="20" stroke="#9467bd" stroke-width="1.5" stroke-dasharray="6,4"/><text x="434.70" y="38" text-anchor="start" font-size="12" fill="#9467bd">p99: 1.12M</text><text x="630.00" y="680" text-anchor="middle" font-size="16">Faces per asset</text><text transform="translate(20,320.00) rotate(-90)" text-anchor="middle" font-size="16">Count of assets</text></svg>
