<svg xmlns="http://www.w3.org/2000/svg" width="1200" height="700">
<rect width="100%" height="100%" fill="#ffffff"/>
<style>
  text { fill: #000; font-family: "Times New Roman", Times, Georgia, serif; }
  .axis { stroke: #000; stroke-width: 1.5; shape-rendering: crispEdges; }
  .grid { stroke: #cccccc; stroke-width: 1; shape-rendering: crispEdges; }
  .tick { stroke: #000; stroke-width: 1; }
</style>
<line class="axis" x1="90" y1="620" x2="1170" y2="620"/><line class="axis" x1="90" y1="20" x2="90" y2="620"/><line class="grid" x1="90.00" y1="620" x2="90.00" y2="20"/><line class="tick" x1="90.00" y1="620" x2="90.00" y2="626"/><text x="90.00" y="648" text-anchor="middle" font-size="14">0</text><line class="grid" x1="393.19" y1="620" x2="393.19" y2="20"/><line class="tick" x1="393.19" y1="620" x2="393.19" y2="626"/><text x="393.19" y="648" text-anchor="middle" font-size="14">1.00M</text><line class="grid" x1="696.38" y1="620" x2="696.38" y2="20"/><line class="tick" x1="696.38" y1="620" x2="696.38" y2="626"/><text x="696.38" y="648" text-anchor="middle" font-size="14">2.00M</text><line class="grid" x1="999.57" y1="620" x2="999.57" y2="20"/><line class="tick" x1="999.57" y1="620" x2="999.57" y2="626"/><text x="999.57" y="648" text-anchor="middle" font-size="14">3.00M</text><line class="grid" x1="1302.76" y1="620" x2="1302.76" y2="20"/><line class="tick" x1="1302.76" y1="620" x2="1302.76" y2="626"/><text x="1302.76" y="648" text-anchor="middle" font-size="14">4.00M</text><line class="grid" x1="90" y1="620.00" x2="1170" y2="620.00"/><line class="tick" x1="84" y1="620.00" x2="90" y2="620.00"/><text x="80" y="625.00" text-anchor="end" font-size="14">0</text><line class="grid" x1="90" y1="470.00" x2="1170" y2="470.00"/><line class="tick" x1="84" y1="470.00" x2="90" y2="470.00"/><text x="80" y="475.00" text-anchor="end" font-size="14">0.25</text><line class="grid" x1="90" y1="320.00" x2="1170" y2="320.00"/><line class="tick" x1="84" y1="320.00" x2="90" y2="320.00"/><text x="80" y="325.00" text-anchor="end" font-size="14">0.5</text><line class="grid" x1="90" y1="170.00" x2="1170" y2="170.00"/><line class="tick" x1="84" y1="170.00" x2="90" y2="170.00"/><text x="80" y="175.00" text-anchor="end" font-size="14">0.75</text><line class="grid" x1="90" y1="20.00" x2="1170" y2="20.00"/><line class="tick" x1="84" y1="20.00" x2="90" y2="20.00"/><text x="80" y="25.00" text-anchor="end" font-size="14">1.0</text><polyline fill="none" stroke="#d62728" stroke-width="2.5" points="90.00,620.00 90.00,619.74 90.00,619.47 90.00,619.21 90.00,618.95 90.00,618.69 90.00,618.42 90.00,618.16 90.00,617.90 90.00,617.64 90.00,617.37 90.00,617.11 90.00,616.85 90.00,616.59 90.00,616.32 90.00,616.06 90.00,615.80 90.00,615.53 90.00,615.27 90.00,615.01 90.00,614.75 90.01,614.48 90.01,614.22 90.01,613.96 90.01,613.70 90.01,613.43 90.01,613.17 90.01,612.91 90.01,612.65 90.01,612.38 90.01,612.12 90.01,611.86 90.01,611.60 90.01,611.33 90.01,611.07 90.01,610.81 90.01,610.54 90.01,610.28 90.01,610.02 90.01,609.76 90.01,609.49 90.01,609.23 90.01,608.97 90.01,608.71 90.01,608.44 90.01,608.18 90.01,607.92 90.01,607.66 90.01,607.39 90.01,607.13 90.01,606.87 90.01,606.60 90.01,606.34 90.02,606.08 90.02,605.82 90.02,605.55 90.02,605.29 90.02,605.03 90.02,604.77 90.02,604.50 90.02,604.24 90.02,603.98 90.02,603.72 90.02,603.45 90.02,603.19 90.02,602.93 90.02,602.67 90.02,602.40 90.02,602.14 90.02,601.88 90.02,601.61 90.02,601.35 90.02,601.09 90.02,600.83 90.02,600.56 90.02,600.30 90.02,600.04 90.02,599.78 90.02,599.51 90.02,599.25 90.02,598.99 90.03,598.73 90.03,598.46 90.03,598.20 90.03,597.94 90.03,597.67 90.03,597.41 90.03,597.15 90.03,596.89 90.03,596.62 90.03,596.36 90.03,596.10 90.03,595.84 90.03,595.57 90.03,595.31 90.03,595.05 90.03,594.79 90.03,594.52 90.03,594.26 90.03,594.00 90.04,593.73 90.04,593.47 90.04,593.21 90.04,592.95 90.04,592.68 90.04,592.42 90.04,592.16 90.04,591.90 90.04,591.63 90.04,591.37 90.04,591.11 90.04,590.85 90.04,590.58 90.04,590.32 90.04,590.06 90.04,589.80 90.04,589.53 90.04,589.27 90.04,589.01 90.04,588.74 90.04,588.48 90.04,588.22 90.04,587.96 90.04,587.69 90.04,587.43 90.05,587.17 90.05,586.91 90.05,586.64 90.05,586.38 90.05,586.12 90.05,585.86 90.05,585.59 90.05,585.33 90.05,585.07 90.05,584.80 90.05,584.54 90.05,584.28 90.05,584.02 90.05,583.75 90.05,583.49 90.05,583.23 90.05,582.97 90.05,582.70 90.06,582.44 90.06,582.18 90.06,581.92 90.06,581.65 90.06,581.39 90.06,581.13 90.06,580.86 90.06,580.60 90.06,580.34 90.06,580.08 90.06,579.81 90.06,579.55 90.06,579.29 90.06,579.03 90.06,578.76 90.06,578.50 90.06,578.24 90.06,577.98 90.06,577.71 90.06,577.45 90.06,577.19 90.06,576.93 90.06,576.66 90.06,576.40 90.06,576.14 90.06,575.87 90.07,575.61 90.07,575.35 90.07,575.09 90.07,574.82 90.07,574.56 90.07,574.30 90.07,574.04 90.07,573.77 90.07,573.51 90.07,573.25 90.07,572.99 90.07,572.72 90.07,572.46 90.07,572.20 90.07,571.93 90.07,571.67 90.07,571.41 90.07,571.15 90.07,570.88 90.07,570.62 90.08,570.36 90.08,570.10 90.08,569.83 90.08,569.57 90.08,569.31 90.08,569.05 90.08,568.78 90.08,568.52 90.08,568.26 90.08,568.00 90.08,567.73 90.08,567.47 90.08,567.21 90.08,566.94 90.08,566.68 90.08,566.42 90.08,566.16 90.08,565.89 90.09,565.63 90.09,565.37 90.09,565.11 90.09,564.84 90.09,564.58 90.09,564.32 90.09,564.06 90.09,563.79 90.09,563.53 90.09,563.27 90.09,563.00 90.09,562.74 90.09,562.48 90.09,562.22 90.09,561.95 90.09,561.69 90.10,561.43 90.10,561.17 90.10,560.90 90.10,560.64 90.10,560.38 90.10,560.12 90.10,559.85 90.10,559.59 90.10,559.33 90.10,559.06 90.10,558.80 90.10,558.54 90.10,558.28 90.10,558.01 90.10,557.75 90.10,557.49 90.10,557.23 90.10,556.96 90.10,556.70 90.10,556.44 90.10,556.18 90.10,555.91 90.10,555.65 90.10,555.39 90.10,555.13 90.10,554.86 90.10,554.60 90.10,554.34 90.10,554.07 90.10,553.81 90.11,553.55 90.11,553.29 90.11,553.02 90.11,552.76 90.11,552.50 90.11,552.24 90.11,551.97 90.11,551.71 90.11,551.45 90.11,551.19 90.11,550.92 90.11,550.66 90.11,550.40 90.11,550.13 90.12,549.87 90.12,549.61 90.12,549.35 90.12,549.08 90.12,548.82 90.12,548.56 90.12,548.30 90.12,548.03 90.12,547.77 90.12,547.51 90.12,547.25 90.12,546.98 90.12,546.72 90.12,546.46 90.12,546.20 90.12,545.93 90.12,545.67 90.13,545.41 90.13,545.14 90.13,544.88 90.13,544.62 90.13,544.36 90.14,544.09 90.14,543.83 90.14,543.57 90.14,543.31 90.14,543.04 90.15,542.78 90.15,542.52 90.15,542.26 90.15,541.99 90.15,541.73 90.15,541.47 90.15,541.20 90.15,540.94 90.16,540.68 90.16,540.42 90.16,540.15 90.16,539.89 90.16,539.63 90.16,539.37 90.16,539.10 90.16,538.84 90.16,538.58 90.16,538.32 90.16,538.05 90.16,537.79 90.16,537.53 90.16,537.26 90.16,537.00 90.16,536.74 90.16,536.48 90.16,536.21 90.16,535.95 90.16,535.69 90.16,535.43 90.16,535.16 90.16,534.90 90.16,534.64 90.16,534.38 90.16,534.11 90.16,533.85 90.16,533.59 90.16,533.33 90.16,533.06 90.16,532.80 90.16,532.54 90.16,532.27 90.16,532.01 90.16,531.75 90.16,531.49 90.16,531.22 90.16,530.96 90.16,530.70 90.16,530.44 90.16,530.17 90.16,529.91 90.16,529.65 90.16,529.39 90.16,529.12 90.16,528.86 90.16,528.60 90.16,528.33 90.16,528.07 90.17,527.81 90.17,527.55 90.17,527.28 90.17,527.02 90.17,526.76 90.17,526.50 90.17,526.23 90.17,525.97 90.17,525.71 90.17,525.45 90.17,525.18 90.17,524.92 90.17,524.66 90.18,524.40 90.18,524.13 90.18,523.87 90.18,523.61 90.18,523.34 90.18,523.08 90.19,522.82 90.19,522.56 90.19,522.29 90.19,522.03 90.19,521.77 90.19,521.51 90.19,521.24 90.19,520.98 90.19,520.72 90.19,520.46 90.19,520.19 90.20,519.93 90.20,519.67 90.20,519.40 90.20,519.14 90.20,518.88 90.20,518.62 90.20,518.35 90.20,518.09 90.20,517.83 90.20,517.57 90.20,517.30 90.20,517.04 90.21,516.78 90.21,516.52 90.21,516.25 90.21,515.99 90.21,515.73 90.21,515.46 90.21,515.20 90.21,514.94 90.22,514.68 90.22,514.41 90.22,514.15 90.22,513.89 90.22,513.63 90.22,513.36 90.22,513.10 90.22,512.84 90.22,512.58 90.22,512.31 90.22,512.05 90.22,511.79 90.22,511.53 90.22,511.26 90.22,511.00 90.22,510.74 90.23,510.47 90.23,510.21 90.23,509.95 90.23,509.69 90.23,509.42 90.23,509.16 90.23,508.90 90.23,508.64 90.23,508.37 90.23,508.11 90.23,507.85 90.23,507.59 90.23,507.32 90.23,507.06 90.23,506.80 90.23,506.53 90.23,506.27 90.23,506.01 90.23,505.75 90.23,505.48 90.23,505.22 90.23,504.96 90.23,504.70 90.23,504.43 90.23,504.17 90.24,503.91 90.24,503.65 90.24,503.38 90.24,503.12 90.24,502.86 90.24,502.59 90.24,502.33 90.24,502.07 90.24,501.81 90.24,501.54 90.24,501.28 90.24,501.02 90.24,500.76 90.24,500.49 90.24,500.23 90.24,499.97 90.24,499.71 90.24,499.44 90.24,499.18 90.24,498.92 90.24,498.66 90.24,498.39 90.24,498.13 90.25,497.87 90.25,497.60 90.25,497.34 90.25,497.08 90.25,496.82 90.26,496.55 90.26,496.29 90.26,496.03 90.26,495.77 90.26,495.50 90.26,495.24 90.26,494.98 90.26,494.72 90.26,494.45 90.27,494.19 90.27,493.93 90.27,493.66 90.27,493.40 90.27,493.14 90.27,492.88 90.27,492.61 90.27,492.35 90.27,492.09 90.27,491.83 90.27,491.56 90.27,491.30 90.27,491.04 90.27,490.78 90.27,490.51 90.28,490.25 90.28,489.99 90.28,489.73 90.28,489.46 90.28,489.20 90.28,488.94 90.28,488.67 90.28,488.41 90.28,488.15 90.28,487.89 90.28,487.62 90.28,487.36 90.28,487.10 90.28,486.84 90.28,486.57 90.28,486.31 90.28,486.05 90.28,485.79 90.28,485.52 90.28,485.26 90.28,485.00 90.28,484.73 90.28,484.47 90.28,484.21 90.28,483.95 90.28,483.68 90.28,483.42 90.28,483.16 90.28,482.90 90.28,482.63 90.28,482.37 90.28,482.11 90.28,481.85 90.28,481.58 90.28,481.32 90.28,481.06 90.28,480.79 90.28,480.53 90.29,480.27 90.29,480.01 90.29,479.74 90.29,479.48 90.29,479.22 90.29,478.96 90.29,478.69 90.29,478.43 90.29,478.17 90.29,477.91 90.29,477.64 90.29,477.38 90.29,477.12 90.29,476.86 90.29,476.59 90.29,476.33 90.29,476.07 90.29,475.80 90.29,475.54 90.29,475.28 90.29,475.02 90.29,474.75 90.29,474.49 90.30,474.23 90.30,473.97 90.30,473.70 90.30,473.44 90.30,473.18 90.30,472.92 90.31,472.65 90.31,472.39 90.31,472.13 90.31,471.86 90.31,471.60 90.31,471.34 90.31,471.08 90.32,470.81 90.32,470.55 90.32,470.29 90.32,470.03 90.32,469.76 90.32,469.50 90.32,469.24 90.32,468.98 90.32,468.71 90.32,468.45 90.32,468.19 90.32,467.93 90.33,467.66 90.33,467.40 90.33,467.14 90.33,466.87 90.33,466.61 90.33,466.35 90.33,466.09 90.33,465.82 90.34,465.56 90.34,465.30 90.34,465.04 90.34,464.77 90.34,464.51 90.34,464.25 90.34,463.99 90.34,463.72 90.35,463.46 90.35,463.20 90.35,462.93 90.35,462.67 90.35,462.41 90.35,462.15 90.35,461.88 90.36,461.62 90.36,461.36 90.36,461.10 90.36,460.83 90.36,460.57 90.36,460.31 90.36,460.05 90.36,459.78 90.36,459.52 90.37,459.26 90.37,458.99 90.37,458.73 90.37,458.47 90.37,458.21 90.38,457.94 90.38,457.68 90.38,457.42 90.38,457.16 90.38,456.89 90.38,456.63 90.38,456.37 90.39,456.11 90.39,455.84 90.39,455.58 90.39,455.32 90.39,455.06 90.39,454.79 90.39,454.53 90.39,454.27 90.39,454.00 90.39,453.74 90.39,453.48 90.39,453.22 90.39,452.95 90.39,452.69 90.39,452.43 90.39,452.17 90.39,451.90 90.39,451.64 90.39,451.38 90.39,451.12 90.39,450.85 90.39,450.59 90.40,450.33 90.40,450.06 90.40,449.80 90.40,449.54 90.41,449.28 90.41,449.01 90.41,448.75 90.41,448.49 90.41,448.23 90.41,447.96 90.41,447.70 90.41,447.44 90.41,447.18 90.41,446.91 90.41,446.65 90.41,446.39 90.41,446.13 90.41,445.86 90.41,445.60 90.41,445.34 90.41,445.07 90.41,444.81 90.41,444.55 90.41,444.29 90.41,444.02 90.41,443.76 90.41,443.50 90.42,443.24 90.42,442.97 90.42,442.71 90.42,442.45 90.42,442.19 90.42,441.92 90.42,441.66 90.42,441.40 90.42,441.13 90.42,440.87 90.43,440.61 90.43,440.35 90.43,440.08 90.43,439.82 90.43,439.56 90.43,439.30 90.43,439.03 90.43,438.77 90.43,438.51 90.44,438.25 90.44,437.98 90.44,437.72 90.44,437.46 90.44,437.19 90.44,436.93 90.44,436.67 90.44,436.41 90.44,436.14 90.44,435.88 90.44,435.62 90.44,435.36 90.44,435.09 90.44,434.83 90.44,434.57 90.44,434.31 90.45,434.04 90.45,433.78 90.46,433.52 90.46,433.26 90.47,432.99 90.47,432.73 90.47,432.47 90.47,432.20 90.47,431.94 90.47,431.68 90.48,431.42 90.48,431.15 90.48,430.89 90.48,430.63 90.48,430.37 90.48,430.10 90.48,429.84 90.48,429.58 90.49,429.32 90.49,429.05 90.49,428.79 90.49,428.53 90.50,428.26 90.50,428.00 90.50,427.74 90.50,427.48 90.50,427.21 90.50,426.95 90.51,426.69 90.51,426.43 90.51,426.16 90.51,425.90 90.51,425.64 90.51,425.38 90.51,425.11 90.51,424.85 90.51,424.59 90.51,424.32 90.51,424.06 90.51,423.80 90.52,423.54 90.52,423.27 90.52,423.01 90.53,422.75 90.53,422.49 90.54,422.22 90.54,421.96 90.54,421.70 90.54,421.44 90.54,421.17 90.54,420.91 90.54,420.65 90.55,420.39 90.55,420.12 90.55,419.86 90.56,419.60 90.56,419.33 90.56,419.07 90.57,418.81 90.58,418.55 90.58,418.28 90.59,418.02 90.59,417.76 90.59,417.50 90.59,417.23 90.60,416.97 90.60,416.71 90.60,416.45 90.60,416.18 90.61,415.92 90.61,415.66 90.61,415.39 90.61,415.13 90.61,414.87 90.62,414.61 90.62,414.34 90.62,414.08 90.62,413.82 90.63,413.56 90.63,413.29 90.64,413.03 90.64,412.77 90.64,412.51 90.64,412.24 90.64,411.98 90.65,411.72 90.65,411.46 90.65,411.19 90.65,410.93 90.65,410.67 90.65,410.40 90.65,410.14 90.65,409.88 90.66,409.62 90.66,409.35 90.66,409.09 90.66,408.83 90.66,408.57 90.67,408.30 90.67,408.04 90.67,407.78 90.67,407.52 90.68,407.25 90.68,406.99 90.68,406.73 90.69,406.46 90.69,406.20 90.69,405.94 90.70,405.68 90.70,405.41 90.70,405.15 90.70,404.89 90.70,404.63 90.71,404.36 90.71,404.10 90.71,403.84 90.71,403.58 90.72,403.31 90.72,403.05 90.72,402.79 90.72,402.52 90.72,402.26 90.72,402.00 90.73,401.74 90.73,401.47 90.73,401.21 90.74,400.95 90.74,400.69 90.75,400.42 90.75,400.16 90.76,399.90 90.77,399.64 90.77,399.37 90.78,399.11 90.78,398.85 90.79,398.59 90.79,398.32 90.79,398.06 90.79,397.80 90.79,397.53 90.79,397.27 90.80,397.01 90.80,396.75 90.80,396.48 90.80,396.22 90.81,395.96 90.81,395.70 90.82,395.43 90.82,395.17 90.82,394.91 90.82,394.65 90.82,394.38 90.83,394.12 90.83,393.86 90.83,393.59 90.84,393.33 90.85,393.07 90.85,392.81 90.85,392.54 90.85,392.28 90.85,392.02 90.85,391.76 90.86,391.49 90.87,391.23 90.87,390.97 90.87,390.71 90.88,390.44 90.88,390.18 90.89,389.92 90.89,389.66 90.90,389.39 90.90,389.13 90.91,388.87 90.91,388.60 90.92,388.34 90.93,388.08 90.93,387.82 90.93,387.55 90.94,387.29 90.95,387.03 90.95,386.77 90.95,386.50 90.95,386.24 90.96,385.98 90.97,385.72 90.97,385.45 90.97,385.19 90.97,384.93 90.97,384.66 90.97,384.40 90.97,384.14 90.97,383.88 90.97,383.61 90.97,383.35 90.98,383.09 90.98,382.83 90.98,382.56 90.99,382.30 91.00,382.04 91.00,381.78 91.00,381.51 91.00,381.25 91.01,380.99 91.01,380.72 91.02,380.46 91.02,380.20 91.03,379.94 91.03,379.67 91.03,379.41 91.04,379.15 91.04,378.89 91.05,378.62 91.05,378.36 91.06,378.10 91.07,377.84 91.07,377.57 91.07,377.31 91.07,377.05 91.08,376.79 91.08,376.52 91.08,376.26 91.08,376.00 91.09,375.73 91.10,375.47 91.10,375.21 91.10,374.95 91.10,374.68 91.10,374.42 91.10,374.16 91.10,373.90 91.10,373.63 91.10,373.37 91.10,373.11 91.11,372.85 91.11,372.58 91.11,372.32 91.11,372.06 91.11,371.79 91.12,371.53 91.12,371.27 91.13,371.01 91.13,370.74 91.13,370.48 91.14,370.22 91.14,369.96 91.15,369.69 91.16,369.43 91.16,369.17 91.16,368.91 91.17,368.64 91.17,368.38 91.18,368.12 91.18,367.86 91.19,367.59 91.20,367.33 91.20,367.07 91.20,366.80 91.21,366.54 91.21,366.28 91.22,366.02 91.22,365.75 91.22,365.49 91.22,365.23 91.22,364.97 91.22,364.70 91.22,364.44 91.22,364.18 91.23,363.92 91.24,363.65 91.24,363.39 91.24,363.13 91.24,362.86 91.25,362.60 91.25,362.34 91.25,362.08 91.26,361.81 91.26,361.55 91.27,361.29 91.27,361.03 91.28,360.76 91.28,360.50 91.28,360.24 91.29,359.98 91.29,359.71 91.30,359.45 91.30,359.19 91.30,358.92 91.31,358.66 91.31,358.40 91.31,358.14 91.31,357.87 91.32,357.61 91.32,357.35 91.33,357.09 91.33,356.82 91.34,356.56 91.35,356.30 91.36,356.04 91.36,355.77 91.37,355.51 91.38,355.25 91.38,354.99 91.39,354.72 91.39,354.46 91.40,354.20 91.41,353.93 91.42,353.67 91.42,353.41 91.42,353.15 91.42,352.88 91.42,352.62 91.42,352.36 91.42,352.10 91.42,351.83 91.42,351.57 91.43,351.31 91.44,351.05 91.45,350.78 91.46,350.52 91.46,350.26 91.47,349.99 91.47,349.73 91.47,349.47 91.48,349.21 91.49,348.94 91.49,348.68 91.50,348.42 91.51,348.16 91.51,347.89 91.51,347.63 91.52,347.37 91.52,347.11 91.53,346.84 91.54,346.58 91.55,346.32 91.55,346.05 91.55,345.79 91.56,345.53 91.57,345.27 91.57,345.00 91.58,344.74 91.58,344.48 91.59,344.22 91.59,343.95 91.60,343.69 91.60,343.43 91.61,343.17 91.62,342.90 91.62,342.64 91.62,342.38 91.63,342.12 91.63,341.85 91.63,341.59 91.64,341.33 91.65,341.06 91.65,340.80 91.66,340.54 91.67,340.28 91.68,340.01 91.68,339.75 91.69,339.49 91.70,339.23 91.70,338.96 91.71,338.70 91.72,338.44 91.73,338.18 91.73,337.91 91.74,337.65 91.74,337.39 91.74,337.12 91.75,336.86 91.76,336.60 91.77,336.34 91.77,336.07 91.78,335.81 91.79,335.55 91.80,335.29 91.82,335.02 91.83,334.76 91.83,334.50 91.83,334.24 91.83,333.97 91.84,333.71 91.84,333.45 91.86,333.19 91.87,332.92 91.87,332.66 91.88,332.40 91.89,332.13 91.90,331.87 91.91,331.61 91.92,331.35 91.93,331.08 91.94,330.82 91.95,330.56 91.96,330.30 91.96,330.03 91.97,329.77 91.99,329.51 92.00,329.25 92.01,328.98 92.02,328.72 92.02,328.46 92.04,328.19 92.04,327.93 92.05,327.67 92.06,327.41 92.08,327.14 92.08,326.88 92.09,326.62 92.10,326.36 92.10,326.09 92.10,325.83 92.10,325.57 92.11,325.31 92.12,325.04 92.13,324.78 92.14,324.52 92.15,324.25 92.16,323.99 92.16,323.73 92.16,323.47 92.18,323.20 92.18,322.94 92.18,322.68 92.18,322.42 92.19,322.15 92.20,321.89 92.21,321.63 92.22,321.37 92.23,321.10 92.24,320.84 92.25,320.58 92.26,320.32 92.26,320.05 92.27,319.79 92.27,319.53 92.28,319.26 92.30,319.00 92.30,318.74 92.30,318.48 92.31,318.21 92.33,317.95 92.33,317.69 92.34,317.43 92.36,317.16 92.36,316.90 92.37,316.64 92.37,316.38 92.38,316.11 92.40,315.85 92.41,315.59 92.41,315.32 92.43,315.06 92.44,314.80 92.46,314.54 92.47,314.27 92.48,314.01 92.48,313.75 92.48,313.49 92.48,313.22 92.49,312.96 92.49,312.70 92.51,312.44 92.51,312.17 92.53,311.91 92.54,311.65 92.55,311.39 92.55,311.12 92.56,310.86 92.56,310.60 92.56,310.33 92.57,310.07 92.58,309.81 92.59,309.55 92.60,309.28 92.60,309.02 92.61,308.76 92.62,308.50 92.63,308.23 92.64,307.97 92.65,307.71 92.67,307.45 92.68,307.18 92.68,306.92 92.68,306.66 92.69,306.39 92.70,306.13 92.71,305.87 92.72,305.61 92.74,305.34 92.75,305.08 92.76,304.82 92.77,304.56 92.78,304.29 92.79,304.03 92.80,303.77 92.81,303.51 92.83,303.24 92.84,302.98 92.84,302.72 92.85,302.45 92.87,302.19 92.87,301.93 92.88,301.67 92.90,301.40 92.91,301.14 92.93,300.88 92.93,300.62 92.93,300.35 92.94,300.09 92.96,299.83 92.96,299.57 92.97,299.30 92.97,299.04 92.99,298.78 93.00,298.52 93.02,298.25 93.02,297.99 93.03,297.73 93.04,297.46 93.06,297.20 93.07,296.94 93.08,296.68 93.09,296.41 93.10,296.15 93.12,295.89 93.14,295.63 93.16,295.36 93.17,295.10 93.20,294.84 93.20,294.58 93.21,294.31 93.23,294.05 93.24,293.79 93.25,293.52 93.26,293.26 93.28,293.00 93.29,292.74 93.30,292.47 93.32,292.21 93.34,291.95 93.35,291.69 93.36,291.42 93.38,291.16 93.38,290.90 93.38,290.64 93.38,290.37 93.40,290.11 93.42,289.85 93.42,289.59 93.43,289.32 93.44,289.06 93.46,288.80 93.47,288.53 93.49,288.27 93.49,288.01 93.50,287.75 93.52,287.48 93.53,287.22 93.53,286.96 93.53,286.70 93.54,286.43 93.57,286.17 93.58,285.91 93.59,285.65 93.60,285.38 93.62,285.12 93.65,284.86 93.66,284.59 93.68,284.33 93.68,284.07 93.72,283.81 93.73,283.54 93.74,283.28 93.75,283.02 93.77,282.76 93.78,282.49 93.79,282.23 93.80,281.97 93.82,281.71 93.83,281.44 93.84,281.18 93.84,280.92 93.84,280.65 93.86,280.39 93.88,280.13 93.89,279.87 93.91,279.60 93.92,279.34 93.93,279.08 93.94,278.82 93.94,278.55 93.96,278.29 93.96,278.03 93.96,277.77 93.98,277.50 94.00,277.24 94.01,276.98 94.02,276.72 94.04,276.45 94.05,276.19 94.07,275.93 94.10,275.66 94.10,275.40 94.10,275.14 94.10,274.88 94.10,274.61 94.13,274.35 94.14,274.09 94.15,273.83 94.16,273.56 94.18,273.30 94.19,273.04 94.20,272.78 94.21,272.51 94.23,272.25 94.25,271.99 94.25,271.72 94.26,271.46 94.26,271.20 94.28,270.94 94.28,270.67 94.30,270.41 94.32,270.15 94.34,269.89 94.35,269.62 94.36,269.36 94.38,269.10 94.39,268.84 94.40,268.57 94.41,268.31 94.42,268.05 94.45,267.78 94.46,267.52 94.49,267.26 94.50,267.00 94.51,266.73 94.53,266.47 94.55,266.21 94.56,265.95 94.56,265.68 94.58,265.42 94.59,265.16 94.60,264.90 94.61,264.63 94.62,264.37 94.65,264.11 94.65,263.85 94.66,263.58 94.69,263.32 94.69,263.06 94.71,262.79 94.71,262.53 94.73,262.27 94.75,262.01 94.76,261.74 94.77,261.48 94.79,261.22 94.80,260.96 94.81,260.69 94.82,260.43 94.85,260.17 94.87,259.91 94.91,259.64 94.93,259.38 94.96,259.12 94.99,258.85 95.00,258.59 95.03,258.33 95.04,258.07 95.07,257.80 95.10,257.54 95.12,257.28 95.13,257.02 95.14,256.75 95.17,256.49 95.18,256.23 95.21,255.97 95.22,255.70 95.23,255.44 95.24,255.18 95.27,254.92 95.29,254.65 95.32,254.39 95.33,254.13 95.35,253.86 95.36,253.60 95.38,253.34 95.39,253.08 95.40,252.81 95.42,252.55 95.45,252.29 95.48,252.03 95.51,251.76 95.56,251.50 95.59,251.24 95.61,250.98 95.63,250.71 95.65,250.45 95.65,250.19 95.66,249.92 95.68,249.66 95.70,249.40 95.70,249.14 95.71,248.87 95.73,248.61 95.74,248.35 95.76,248.09 95.80,247.82 95.81,247.56 95.82,247.30 95.84,247.04 95.85,246.77 95.87,246.51 95.89,246.25 95.92,245.98 95.93,245.72 95.95,245.46 95.98,245.20 95.99,244.93 96.01,244.67 96.02,244.41 96.03,244.15 96.05,243.88 96.06,243.62 96.09,243.36 96.10,243.10 96.12,242.83 96.14,242.57 96.18,242.31 96.21,242.05 96.21,241.78 96.23,241.52 96.26,241.26 96.28,240.99 96.30,240.73 96.31,240.47 96.31,240.21 96.32,239.94 96.34,239.68 96.36,239.42 96.38,239.16 96.39,238.89 96.41,238.63 96.43,238.37 96.46,238.11 96.51,237.84 96.53,237.58 96.54,237.32 96.57,237.05 96.61,236.79 96.64,236.53 96.65,236.27 96.66,236.00 96.69,235.74 96.69,235.48 96.69,235.22 96.73,234.95 96.74,234.69 96.75,234.43 96.77,234.17 96.80,233.90 96.81,233.64 96.83,233.38 96.87,233.12 96.92,232.85 96.93,232.59 96.96,232.33 96.99,232.06 96.99,231.80 97.02,231.54 97.04,231.28 97.06,231.01 97.07,230.75 97.07,230.49 97.09,230.23 97.12,229.96 97.12,229.70 97.13,229.44 97.15,229.18 97.16,228.91 97.18,228.65 97.19,228.39 97.20,228.12 97.20,227.86 97.23,227.60 97.24,227.34 97.26,227.07 97.27,226.81 97.29,226.55 97.31,226.29 97.32,226.02 97.33,225.76 97.33,225.50 97.37,225.24 97.38,224.97 97.41,224.71 97.45,224.45 97.45,224.18 97.47,223.92 97.51,223.66 97.52,223.40 97.56,223.13 97.57,222.87 97.58,222.61 97.63,222.35 97.65,222.08 97.68,221.82 97.71,221.56 97.76,221.30 97.78,221.03 97.82,220.77 97.85,220.51 97.85,220.25 97.86,219.98 97.88,219.72 97.90,219.46 97.94,219.19 97.98,218.93 98.02,218.67 98.02,218.41 98.03,218.14 98.04,217.88 98.05,217.62 98.07,217.36 98.13,217.09 98.13,216.83 98.14,216.57 98.18,216.31 98.21,216.04 98.23,215.78 98.24,215.52 98.29,215.25 98.32,214.99 98.34,214.73 98.37,214.47 98.38,214.20 98.39,213.94 98.45,213.68 98.48,213.42 98.49,213.15 98.54,212.89 98.55,212.63 98.56,212.37 98.58,212.10 98.60,211.84 98.69,211.58 98.71,211.32 98.74,211.05 98.77,210.79 98.78,210.53 98.80,210.26 98.84,210.00 98.88,209.74 98.90,209.48 98.92,209.21 98.96,208.95 98.99,208.69 99.01,208.43 99.02,208.16 99.04,207.90 99.06,207.64 99.08,207.38 99.09,207.11 99.10,206.85 99.10,206.59 99.12,206.32 99.15,206.06 99.16,205.80 99.19,205.54 99.22,205.27 99.22,205.01 99.24,204.75 99.26,204.49 99.28,204.22 99.31,203.96 99.32,203.70 99.38,203.44 99.41,203.17 99.45,202.91 99.49,202.65 99.52,202.38 99.55,202.12 99.62,201.86 99.64,201.60 99.69,201.33 99.70,201.07 99.74,200.81 99.76,200.55 99.80,200.28 99.83,200.02 99.86,199.76 99.88,199.50 99.90,199.23 99.94,198.97 99.97,198.71 100.00,198.45 100.01,198.18 100.04,197.92 100.08,197.66 100.14,197.39 100.16,197.13 100.18,196.87 100.21,196.61 100.26,196.34 100.29,196.08 100.30,195.82 100.33,195.56 100.37,195.29 100.40,195.03 100.43,194.77 100.44,194.51 100.48,194.24 100.52,193.98 100.60,193.72 100.62,193.45 100.71,193.19 100.76,192.93 100.78,192.67 100.85,192.40 100.87,192.14 100.91,191.88 100.94,191.62 101.01,191.35 101.04,191.09 101.07,190.83 101.09,190.57 101.12,190.30 101.16,190.04 101.22,189.78 101.23,189.51 101.27,189.25 101.30,188.99 101.42,188.73 101.46,188.46 101.50,188.20 101.52,187.94 101.53,187.68 101.55,187.41 101.56,187.15 101.56,186.89 101.58,186.63 101.61,186.36 101.63,186.10 101.66,185.84 101.69,185.58 101.73,185.31 101.75,185.05 101.76,184.79 101.81,184.52 101.86,184.26 101.94,184.00 101.99,183.74 102.01,183.47 102.05,183.21 102.07,182.95 102.10,182.69 102.13,182.42 102.16,182.16 102.18,181.90 102.21,181.64 102.31,181.37 102.34,181.11 102.38,180.85 102.42,180.58 102.43,180.32 102.47,180.06 102.50,179.80 102.56,179.53 102.56,179.27 102.56,179.01 102.57,178.75 102.59,178.48 102.67,178.22 102.73,177.96 102.75,177.70 102.80,177.43 102.84,177.17 102.86,176.91 102.89,176.65 102.93,176.38 102.97,176.12 103.03,175.86 103.03,175.59 103.07,175.33 103.10,175.07 103.14,174.81 103.19,174.54 103.23,174.28 103.28,174.02 103.29,173.76 103.30,173.49 103.31,173.23 103.32,172.97 103.35,172.71 103.42,172.44 103.45,172.18 103.49,171.92 103.50,171.65 103.59,171.39 103.62,171.13 103.65,170.87 103.71,170.60 103.77,170.34 103.83,170.08 103.86,169.82 103.86,169.55 103.92,169.29 103.97,169.03 103.98,168.77 104.03,168.50 104.05,168.24 104.09,167.98 104.17,167.71 104.18,167.45 104.22,167.19 104.25,166.93 104.29,166.66 104.32,166.40 104.36,166.14 104.39,165.88 104.42,165.61 104.53,165.35 104.56,165.09 104.59,164.83 104.61,164.56 104.65,164.30 104.67,164.04 104.71,163.78 104.74,163.51 104.80,163.25 104.84,162.99 104.95,162.72 105.03,162.46 105.06,162.20 105.09,161.94 105.13,161.67 105.16,161.41 105.28,161.15 105.34,160.89 105.39,160.62 105.44,160.36 105.47,160.10 105.47,159.84 105.47,159.57 105.47,159.31 105.47,159.05 105.51,158.78 105.57,158.52 105.64,158.26 105.71,158.00 105.79,157.73 105.88,157.47 105.92,157.21 105.99,156.95 106.08,156.68 106.11,156.42 106.20,156.16 106.26,155.90 106.28,155.63 106.34,155.37 106.35,155.11 106.41,154.85 106.42,154.58 106.44,154.32 106.47,154.06 106.52,153.79 106.54,153.53 106.60,153.27 106.65,153.01 106.70,152.74 106.75,152.48 106.80,152.22 106.86,151.96 106.86,151.69 106.90,151.43 106.96,151.17 107.03,150.91 107.12,150.64 107.19,150.38 107.28,150.12 107.33,149.85 107.37,149.59 107.46,149.33 107.48,149.07 107.52,148.80 107.58,148.54 107.66,148.28 107.71,148.02 107.79,147.75 107.86,147.49 107.92,147.23 107.97,146.97 107.98,146.70 108.01,146.44 108.05,146.18 108.14,145.91 108.16,145.65 108.19,145.39 108.24,145.13 108.32,144.86 108.34,144.60 108.36,144.34 108.42,144.08 108.51,143.81 108.58,143.55 108.62,143.29 108.63,143.03 108.68,142.76 108.76,142.50 108.81,142.24 108.94,141.98 108.96,141.71 109.10,141.45 109.16,141.19 109.26,140.92 109.40,140.66 109.44,140.40 109.58,140.14 109.75,139.87 109.79,139.61 109.84,139.35 110.03,139.09 110.12,138.82 110.14,138.56 110.19,138.30 110.29,138.04 110.44,137.77 110.72,137.51 110.80,137.25 110.87,136.98 110.96,136.72 111.07,136.46 111.12,136.20 111.18,135.93 111.21,135.67 111.43,135.41 111.62,135.15 111.73,134.88 111.83,134.62 111.97,134.36 112.06,134.10 112.14,133.83 112.14,133.57 112.14,133.31 112.14,133.05 112.21,132.78 112.28,132.52 112.38,132.26 112.39,131.99 112.49,131.73 112.62,131.47 112.69,131.21 112.74,130.94 112.94,130.68 112.95,130.42 113.02,130.16 113.16,129.89 113.21,129.63 113.23,129.37 113.37,129.11 113.47,128.84 113.51,128.58 113.54,128.32 113.64,128.05 113.73,127.79 113.76,127.53 113.79,127.27 113.84,127.00 113.89,126.74 113.96,126.48 114.01,126.22 114.11,125.95 114.22,125.69 114.26,125.43 114.36,125.17 114.40,124.90 114.56,124.64 114.63,124.38 114.71,124.11 114.75,123.85 114.77,123.59 114.84,123.33 114.89,123.06 114.97,122.80 115.09,122.54 115.20,122.28 115.27,122.01 115.34,121.75 115.39,121.49 115.42,121.23 115.51,120.96 115.66,120.70 115.75,120.44 115.77,120.18 115.80,119.91 115.88,119.65 115.92,119.39 116.02,119.12 116.06,118.86 116.17,118.60 116.23,118.34 116.31,118.07 116.39,117.81 116.56,117.55 116.66,117.29 116.98,117.02 117.08,116.76 117.21,116.50 117.54,116.24 117.59,115.97 117.68,115.71 117.85,115.45 117.94,115.18 118.05,114.92 118.17,114.66 118.25,114.40 118.35,114.13 118.49,113.87 118.55,113.61 118.71,113.35 118.74,113.08 118.83,112.82 118.98,112.56 119.05,112.30 119.24,112.03 119.37,111.77 119.46,111.51 119.55,111.24 119.69,110.98 119.80,110.72 119.94,110.46 120.08,110.19 120.17,109.93 120.29,109.67 120.29,109.41 120.31,109.14 120.32,108.88 120.32,108.62 120.32,108.36 120.32,108.09 120.33,107.83 120.33,107.57 120.36,107.31 120.43,107.04 120.52,106.78 120.62,106.52 120.63,106.25 120.65,105.99 120.79,105.73 120.84,105.47 120.94,105.20 121.03,104.94 121.06,104.68 121.20,104.42 121.25,104.15 121.34,103.89 121.48,103.63 121.57,103.37 121.67,103.10 121.84,102.84 122.03,102.58 122.17,102.31 122.33,102.05 122.43,101.79 122.58,101.53 122.64,101.26 122.84,101.00 123.02,100.74 123.27,100.48 123.60,100.21 123.68,99.95 123.79,99.69 123.83,99.43 124.06,99.16 124.19,98.90 124.28,98.64 124.39,98.38 124.53,98.11 124.58,97.85 124.77,97.59 125.01,97.32 125.17,97.06 125.42,96.80 125.59,96.54 125.72,96.27 125.84,96.01 125.86,95.75 126.06,95.49 126.17,95.22 126.51,94.96 126.84,94.70 126.97,94.44 127.36,94.17 127.70,93.91 127.85,93.65 128.19,93.38 128.29,93.12 128.51,92.86 128.59,92.60 128.72,92.33 129.15,92.07 129.32,91.81 129.44,91.55 129.60,91.28 129.79,91.02 129.99,90.76 130.04,90.50 130.08,90.23 130.26,89.97 130.44,89.71 130.68,89.44 130.77,89.18 130.90,88.92 131.01,88.66 131.17,88.39 131.66,88.13 131.77,87.87 131.89,87.61 131.97,87.34 132.08,87.08 132.16,86.82 132.37,86.56 132.63,86.29 132.74,86.03 132.88,85.77 133.28,85.51 133.68,85.24 134.05,84.98 134.14,84.72 134.30,84.45 134.43,84.19 134.45,83.93 134.61,83.67 134.94,83.40 135.18,83.14 135.52,82.88 135.68,82.62 135.92,82.35 136.53,82.09 136.83,81.83 137.11,81.57 137.92,81.30 137.98,81.04 138.15,80.78 138.51,80.51 138.81,80.25 139.00,79.99 139.13,79.73 139.50,79.46 139.70,79.20 140.29,78.94 140.69,78.68 141.00,78.41 141.28,78.15 141.51,77.89 141.70,77.63 141.80,77.36 142.23,77.10 142.44,76.84 142.58,76.58 142.96,76.31 143.04,76.05 143.25,75.79 143.55,75.52 143.83,75.26 144.35,75.00 144.50,74.74 144.95,74.47 145.56,74.21 145.97,73.95 146.18,73.69 146.49,73.42 146.63,73.16 146.70,72.90 147.07,72.64 147.28,72.37 147.57,72.11 147.64,71.85 147.83,71.58 147.99,71.32 148.34,71.06 148.59,70.80 148.68,70.53 149.06,70.27 149.23,70.01 149.61,69.75 150.12,69.48 150.29,69.22 150.87,68.96 151.20,68.70 151.39,68.43 151.65,68.17 151.82,67.91 152.00,67.64 152.09,67.38 152.43,67.12 152.91,66.86 153.28,66.59 153.47,66.33 153.74,66.07 153.95,65.81 154.57,65.54 155.21,65.28 155.43,65.02 156.06,64.76 156.50,64.49 157.22,64.23 157.55,63.97 158.81,63.71 159.29,63.44 159.50,63.18 159.93,62.92 160.37,62.65 161.20,62.39 161.43,62.13 162.13,61.87 162.54,61.60 162.78,61.34 163.15,61.08 163.71,60.82 164.18,60.55 164.87,60.29 165.19,60.03 165.70,59.77 166.22,59.50 166.69,59.24 167.08,58.98 167.18,58.71 167.95,58.45 168.70,58.19 170.67,57.93 171.47,57.66 172.15,57.40 173.23,57.14 174.10,56.88 174.99,56.61 176.00,56.35 176.76,56.09 177.34,55.83 178.49,55.56 178.89,55.30 179.91,55.04 180.63,54.77 181.75,54.51 182.46,54.25 183.77,53.99 184.94,53.72 185.51,53.46 186.94,53.20 187.69,52.94 188.33,52.67 189.21,52.41 189.84,52.15 191.19,51.89 193.90,51.62 194.33,51.36 195.49,51.10 195.76,50.84 196.71,50.57 198.36,50.31 199.53,50.05 200.51,49.78 201.27,49.52 201.75,49.26 202.37,49.00 205.31,48.73 205.54,48.47 206.16,48.21 207.66,47.95 208.66,47.68 209.79,47.42 210.00,47.16 211.25,46.90 212.19,46.63 213.39,46.37 214.44,46.11 215.40,45.84 216.42,45.58 217.14,45.32 218.30,45.06 219.47,44.79 220.49,44.53 222.24,44.27 223.08,44.01 224.30,43.74 225.04,43.48 225.92,43.22 227.35,42.96 229.37,42.69 230.73,42.43 233.49,42.17 234.37,41.91 235.10,41.64 236.22,41.38 236.64,41.12 238.23,40.85 240.31,40.59 242.39,40.33 244.42,40.07 245.90,39.80 248.70,39.54 252.65,39.28 255.52,39.02 257.64,38.75 259.51,38.49 261.64,38.23 264.29,37.97 266.52,37.70 267.62,37.44 268.32,37.18 271.03,36.91 274.70,36.65 276.57,36.39 278.55,36.13 280.99,35.86 283.65,35.60 284.97,35.34 288.04,35.08 292.80,34.81 294.69,34.55 295.39,34.29 298.11,34.03 300.23,33.76 304.67,33.50 306.61,33.24 309.94,32.97 313.75,32.71 318.33,32.45 321.58,32.19 326.24,31.92 327.77,31.66 330.47,31.40 339.70,31.14 343.32,30.87 344.56,30.61 349.95,30.35 352.06,30.09 357.82,29.82 366.52,29.56 371.27,29.30 375.00,29.04 378.64,28.77 380.01,28.51 384.04,28.25 394.80,27.98 399.57,27.72 409.11,27.46 412.66,27.20 416.04,26.93 419.66,26.67 420.38,26.41 423.50,26.15 433.22,25.88 443.14,25.62 453.10,25.36 455.07,25.10 468.26,24.83 473.24,24.57 475.54,24.31 480.93,24.04 494.46,23.78 509.25,23.52 520.68,23.26 549.38,22.99 558.12,22.73 575.65,22.47 592.83,22.21 626.03,21.94 656.20,21.68 693.66,21.42 727.56,21.16 771.81,20.89 795.40,20.63 897.06,20.37 1108.34,20.11"/><circle cx="92.26" cy="320.00" r="4" fill="#1f77b4"/><text x="98.26" y="314.00" text-anchor="start" font-size="12">50%: 7.45K</text><circle cx="138.99" cy="80.00" r="4" fill="#1f77b4"/><text x="144.99" y="74.00" text-anchor="start" font-size="12">90%: 161.58K</text><circle cx="428.70" cy="26.00" r="4" fill="#1f77b4"/><text x="434.70" y="20.00" text-anchor="start" font-size="12">99%: 1.12M</text><text x="630.00" y="680" text-anchor="middle" font-size="16">Faces per asset</text><text transform="translate(20,320.00) rotate(-90)" text-anchor="middle" font-size="16">CDF</text></svg>
