<svg width="1593" height="672" viewBox="0 0 1593 672" xmlns="http://www.w3.org/2000/svg">
  <defs>
    <marker id="arrow" markerWidth="10" markerHeight="10" refX="9" refY="3" orient="auto" markerUnits="strokeWidth">
      <path d="M0,0 L0,6 L9,3 z" fill="#888" />
    </marker>
    <style>
      .stage-bg-1 { fill: #dae8fc; rx: 30; }
      .stage-bg-2 { fill: #d5e8d4; rx: 30; }
      .stage-bg-3 { fill: #fff2cc; rx: 30; }
      .stage-title { font-family: Georgia, serif; font-weight: bold; font-size: 28px; text-anchor: middle; fill: #000; }
      .label-text { font-family: Arial, sans-serif; font-size: 18px; text-anchor: middle; fill: #000; }
      .small-text { font-family: Arial, sans-serif; font-size: 14px; text-anchor: middle; fill: #000; }
      .box-label { font-family: Arial, sans-serif; font-size: 16px; text-anchor: middle; dominant-baseline: middle; fill: #000; }
      .af-placeholder { fill: #808080; stroke: black; stroke-width: 2; }
      .af-text { font-family: Arial, sans-serif; font-weight: bold; font-size: 32px; fill: white; text-anchor: middle; dominant-baseline: middle; }
      .af-text-small { font-family: Arial, sans-serif; font-weight: bold; font-size: 18px; fill: white; text-anchor: middle; dominant-baseline: middle; }
      .conn-line { fill: none; stroke: #888; stroke-width: 2; marker-end: url(#arrow); }
      .node-box { fill: #f5f5f5; stroke: #666; stroke-width: 1; rx: 5; }
      .icon-stroke { fill: none; stroke: #000; stroke-width: 2; stroke-linecap: round; stroke-linejoin: round; }
      .icon-fill { fill: #333; }
    </style>
  </defs>

  <!-- Background Stages -->
  <rect x="25" y="50" width="555" height="590" class="stage-bg-1" />
  <rect x="605" y="50" width="595" height="590" class="stage-bg-2" />
  <rect x="1225" y="50" width="340" height="590" class="stage-bg-3" />

  <!-- Stage Titles -->
  <text x="302" y="90" class="stage-title">Stage 1: USD Traversal</text>
  <text x="902" y="90" class="stage-title">Stage 2: Material Conversion</text>
  <text x="1395" y="90" class="stage-title">Stage 3: Path Rewriting</text>

  <!-- STAGE 1 CONTENT -->

  <!-- Root USD File Icon -->
  <g transform="translate(60, 210)">
    <path d="M10,0 L50,0 L70,20 L70,80 L10,80 Z" fill="none" stroke="#000" stroke-width="2"/>
    <polyline points="50,0 50,20 70,20" fill="none" stroke="#000" stroke-width="2"/>
    <line x1="20" y1="30" x2="60" y2="30" stroke="#000" stroke-width="2"/>
    <line x1="20" y1="45" x2="60" y2="45" stroke="#000" stroke-width="2"/>
    <line x1="20" y1="60" x2="40" y2="60" stroke="#000" stroke-width="2"/>
    <text x="40" y="100" class="label-text">Root</text>
    <text x="40" y="120" class="label-text">USD File</text>
  </g>

  <!-- Recursive Discovery Placeholder <AF>09 -->
  <path d="M130,250 L170,250" class="conn-line" />
  <g id="AF09">
    <rect x="170" y="195" width="130" height="80" class="af-placeholder"/>
    <text x="235" y="235" class="af-text">&lt;AF&gt;09</text>
  </g>

  <!-- List Items -->
  <g transform="translate(340, 125)">
    <!-- Sublayers -->
    <path d="M-40,110 C-20,110 -20,15 0,15" class="conn-line" fill="none"/>
    <rect x="0" y="0" width="130" height="35" class="node-box"/>
    <text x="65" y="18" class="box-label">Sublayers</text>
    
    <!-- References -->
    <path d="M-40,110 C-20,110 -20,60 0,60" class="conn-line" fill="none"/>
    <rect x="0" y="45" width="130" height="35" class="node-box"/>
    <text x="65" y="63" class="box-label">References</text>

    <!-- Payloads -->
    <path d="M-40,110 C-20,110 -20,105 0,105" class="conn-line" fill="none"/>
    <rect x="0" y="90" width="130" height="35" class="node-box"/>
    <text x="65" y="108" class="box-label">Payloads</text>

    <!-- Variants -->
    <path d="M-40,110 C-20,110 -20,150 0,150" class="conn-line" fill="none"/>
    <rect x="0" y="135" width="130" height="35" class="node-box"/>
    <text x="65" y="153" class="box-label">Variants</text>
  </g>

  <!-- Dependency Graph Icon -->
  <g transform="translate(305, 380)">
    <!-- Arrows from list to here -->
    <path d="M100,-220 C100,-150 0,-100 0,-30" class="conn-line" fill="none"/>
    
    <!-- Icon -->
    <circle cx="0" cy="0" r="8" fill="#000"/>
    <circle cx="-20" cy="-20" r="6" fill="#000"/>
    <circle cx="20" cy="-20" r="6" fill="#000"/>
    <circle cx="-20" cy="20" r="6" fill="#000"/>
    <circle cx="20" cy="20" r="6" fill="#000"/>
    <line x1="0" y1="0" x2="-20" y2="-20" stroke="#000" stroke-width="2"/>
    <line x1="0" y1="0" x2="20" y2="-20" stroke="#000" stroke-width="2"/>
    <line x1="0" y1="0" x2="-20" y2="20" stroke="#000" stroke-width="2"/>
    <line x1="0" y1="0" x2="20" y2="20" stroke="#000" stroke-width="2"/>
    
    <text x="0" y="50" class="label-text">Dependency Graph</text>
  </g>

  <!-- Placeholders <AF>01 and <AF>04 -->
  <!-- Connections -->
  <path d="M290,410 C290,460 220,460 220,500" class="conn-line" fill="none"/>
  <path d="M320,410 C320,460 370,460 370,500" class="conn-line" fill="none"/>

  <g id="AF01">
    <rect x="165" y="510" width="125" height="110" class="af-placeholder"/>
    <text x="227" y="565" class="af-text">&lt;AF&gt;01</text>
  </g>

  <g id="AF04">
    <rect x="310" y="510" width="125" height="110" class="af-placeholder"/>
    <text x="372" y="565" class="af-text">&lt;AF&gt;04</text>
  </g>

  <!-- Placeholder <AF>06 -->
  <path d="M350,395 L500,395" class="conn-line" />
  <g id="AF06">
    <rect x="500" y="370" width="55" height="55" class="af-placeholder"/>
    <text x="527" y="397" class="af-text-small">&lt;AF&gt;06</text>
  </g>
  <text x="527" y="440" class="label-text">Asset</text>
  <text x="527" y="460" class="label-text">File List</text>

  <!-- STAGE 2 CONTENT -->

  <!-- Placeholder <AF>10 -->
  <path d="M555,395 C580,395 590,285 620,285" class="conn-line" fill="none"/>
  <g id="AF10">
    <rect x="620" y="210" width="115" height="155" class="af-placeholder"/>
    <text x="677" y="287" class="af-text">&lt;AF&gt;10</text>
  </g>

  <!-- UsdPreviewSurface Network Container -->
  <rect x="760" y="125" width="305" height="320" rx="15" fill="none" stroke="#666" stroke-width="1"/>
  <text x="912" y="155" class="label-text" font-weight="bold">UsdPreviewSurface</text>
  <text x="912" y="175" class="label-text" font-weight="bold">Network</text>
  <!-- Small icon header -->
  <path d="M800,150 L830,165 L800,180 Z" fill="#888" transform="translate(-20,-20)"/>
  
  <!-- Connections from AF10 to slots -->
  <path d="M735,280 C750,280 780,230 860,230" class="conn-line" fill="none"/>
  <path d="M735,280 C750,280 780,285 860,285" class="conn-line" fill="none"/>
  <path d="M735,280 C750,280 780,340 860,340" class="conn-line" fill="none"/>
  <path d="M735,280 C750,280 780,395 860,395" class="conn-line" fill="none"/>

  <!-- Slot 1: Base Color (Covered by AF05) -->
  <rect x="860" y="210" width="190" height="45" class="node-box" fill="#fff"/>
  <g id="AF05">
    <rect x="860" y="210" width="190" height="45" class="af-placeholder"/>
    <text x="955" y="233" class="af-text-small">&lt;AF&gt;05</text>
  </g>

  <!-- Slot 2: Roughness -->
  <rect x="860" y="265" width="190" height="45" class="node-box" fill="#fff"/>
  <text x="920" y="293" class="box-label" style="text-anchor:start">Roughness</text>
  <rect x="1000" y="270" width="35" height="35" fill="#999"/> <!-- Texture placeholder -->

  <!-- Slot 3: Metallic (Icon covered by AF02) -->
  <rect x="860" y="320" width="190" height="45" class="node-box" fill="#fff"/>
  <text x="920" y="348" class="box-label" style="text-anchor:start">Metallic</text>
  <g id="AF02">
    <rect x="1000" y="325" width="45" height="35" class="af-placeholder"/>
    <text x="1022" y="343" class="af-text-small" font-size="10px">&lt;AF&gt;02</text>
  </g>

  <!-- Slot 4: Normal -->
  <rect x="860" y="375" width="190" height="45" class="node-box" fill="#fff"/>
  <text x="920" y="403" class="box-label" style="text-anchor:start">Normal</text>
  <rect x="1000" y="380" width="35" height="35" fill="#a0a0ff"/> <!-- Normal map placeholder -->

  <!-- Texture Assets -->
  <g transform="translate(680, 500)">
    <path d="M0,0 L40,0 L55,15 L55,60 L0,60 Z" fill="none" stroke="#000" stroke-width="2"/>
    <polyline points="40,0 40,15 55,15" fill="none" stroke="#000" stroke-width="2"/>
    <path d="M10,50 L20,35 L30,45 L35,30 L50,50 Z" fill="#333"/>
    <text x="27" y="80" class="label-text">Texture</text>
    <text x="27" y="100" class="label-text">Assets</text>
  </g>

  <!-- Resolve & Connect -->
  <g transform="translate(790, 440)">
    <path d="M10,10 L30,30" stroke="#000" stroke-width="5" stroke-linecap="round"/>
    <circle cx="10" cy="10" r="5" stroke="#000" stroke-width="3" fill="none"/>
    <circle cx="30" cy="30" r="5" stroke="#000" stroke-width="3" fill="none"/>
    <text x="20" y="55" class="small-text">Resolve &amp;</text>
    <text x="20" y="70" class="small-text">Connect</text>
  </g>

  <!-- Connections Lower Stage 2 -->
  <path d="M740,530 C760,530 760,460 780,460" class="conn-line" fill="none"/>
  <path d="M740,530 C760,530 760,550 780,550" class="conn-line" fill="none"/>
  
  <!-- Fallback Value -->
  <rect x="785" y="525" width="40" height="40" fill="#a66e86"/>
  <text x="805" y="585" class="small-text">Fallback</text>
  <text x="805" y="605" class="small-text">Value</text>

  <!-- Placeholder <AF>03 -->
  <path d="M825,545 L920,545" class="conn-line" />
  <path d="M955,420 L955,520" class="conn-line" /> <!-- From Normal map -->
  
  <g id="AF03">
    <rect x="920" y="485" width="135" height="140" class="af-placeholder"/>
    <text x="987" y="555" class="af-text">&lt;AF&gt;03</text>
  </g>

  <!-- Processed Files Icon -->
  <g transform="translate(1120, 360)">
    <path d="M-10,-30 L30,-30 L45,-15 L45,30 L-10,30 Z" fill="none" stroke="#000" stroke-width="2"/>
    <polyline points="30,-30 30,-15 45,-15" fill="none" stroke="#000" stroke-width="2"/>
    <line x1="0" y1="-10" x2="35" y2="-10" stroke="#000" stroke-width="2"/>
    <line x1="0" y1="5" x2="35" y2="5" stroke="#000" stroke-width="2"/>
    <line x1="0" y1="20" x2="25" y2="20" stroke="#000" stroke-width="2"/>
    <text x="17" y="50" class="label-text">Processed</text>
    <text x="17" y="70" class="label-text">Files</text>
  </g>

  <!-- Connection to Stage 3 -->
  <path d="M1065,285 C1100,285 1100,360 1110,360" class="conn-line" fill="none"/>
  <path d="M1055,555 C1100,555 1100,450 1105,450" class="conn-line" fill="none" stroke-dasharray="5,5"/> <!-- Dashed line from AF03 -->

  <!-- STAGE 3 CONTENT -->

  <!-- Connection Processed to AF08 -->
  <path d="M1165,360 C1180,360 1180,200 1200,200" class="conn-line" fill="none"/>

  <!-- Placeholder <AF>08 -->
  <g id="AF08">
    <rect x="1245" y="130" width="150" height="140" class="af-placeholder"/>
    <text x="1320" y="200" class="af-text">&lt;AF&gt;08</text>
  </g>

  <!-- Connection AF08 to AF07 -->
  <path d="M1320,270 L1320,300" class="conn-line" />

  <!-- Placeholder <AF>07 -->
  <g id="AF07">
    <rect x="1245" y="300" width="150" height="130" class="af-placeholder"/>
    <text x="1320" y="365" class="af-text">&lt;AF&gt;07</text>
  </g>

  <!-- Connection AF07 to Target -->
  <path d="M1320,430 L1320,460" class="conn-line" />

  <!-- Target Box -->
  <rect x="1245" y="460" width="155" height="70" rx="10" fill="#fcfcfc" stroke="#999"/>
  <text x="1322" y="485" class="box-label">Target:</text>
  <text x="1322" y="505" class="box-label">*.noMDL.usd</text>

  <!-- Connection AF07 to Converted Scene -->
  <path d="M1395,365 L1440,365" class="conn-line" />

  <!-- Converted Scene Icon -->
  <g transform="translate(1450, 325)">
    <path d="M0,0 L50,0 L50,40 L0,40 Z" fill="none" stroke="#000" stroke-width="2"/>
    <path d="M5,35 L20,20 L35,30 L45,15" fill="none" stroke="#000" stroke-width="2"/>
    <circle cx="50" cy="40" r="12" fill="#000"/>
    <path d="M44,40 L48,44 L56,36" fill="none" stroke="#fff" stroke-width="2"/>
    <text x="25" y="70" class="label-text">Converted</text>
    <text x="25" y="90" class="label-text">Scene</text>
  </g>

</svg>